<svg xmlns="http://www.w3.org/2000/svg" viewBox="0 0 400 120">
  <defs>
    <linearGradient id="oceanGrad" x1="0%" y1="0%" x2="100%" y2="0%">
      <stop offset="0%" style="stop-color:#0c4a6e"/>
      <stop offset="50%" style="stop-color:#0369a1"/>
      <stop offset="100%" style="stop-color:#0ea5e9"/>
    </linearGradient>
    <linearGradient id="fishGrad" x1="0%" y1="0%" x2="0%" y2="100%">
      <stop offset="0%" style="stop-color:#fbbf24"/>
      <stop offset="100%" style="stop-color:#f59e0b"/>
    </linearGradient>
  </defs>
  
  <!-- Background circle -->
  <circle cx="60" cy="60" r="50" fill="url(#oceanGrad)"/>
  
  <!-- Fish silhouette -->
  <path d="M35 60 Q45 45, 65 50 Q80 55, 85 60 Q80 65, 65 70 Q45 75, 35 60 Z" fill="url(#fishGrad)"/>
  <polygon points="35,60 25,50 25,70" fill="url(#fishGrad)"/>
  <circle cx="70" cy="58" r="3" fill="#0c4a6e"/>
  
  <!-- Waves -->
  <path d="M20 85 Q35 80, 50 85 Q65 90, 80 85 Q95 80, 100 85" stroke="#7dd3fc" stroke-width="3" fill="none" opacity="0.6"/>
  <path d="M25 92 Q40 87, 55 92 Q70 97, 85 92" stroke="#7dd3fc" stroke-width="2" fill="none" opacity="0.4"/>
  
  <!-- Text -->
  <text x="130" y="55" font-family="Georgia, serif" font-size="32" font-weight="bold" fill="#0c4a6e">Lucky Strike</text>
  <text x="130" y="80" font-family="Arial, sans-serif" font-size="14" fill="#64748b" letter-spacing="3">LAKE ERIE CHARTERS</text>
  <text x="130" y="98" font-family="Arial, sans-serif" font-size="11" fill="#94a3b8">Ashtabula, Ohio • Est. 1985</text>
</svg>