<svg xmlns="http://www.w3.org/2000/svg" viewBox="0 0 1600 1200" role="img" aria-label="Saybrook topo and parcel overlay">
  <defs>
    <pattern id="grid" width="120" height="120" patternUnits="userSpaceOnUse">
      <path d="M120 0H0V120" fill="none" stroke="#1c2d35" stroke-opacity="0.06" stroke-width="2" />
    </pattern>
    <filter id="blur" x="-20%" y="-20%" width="140%" height="140%">
      <feGaussianBlur stdDeviation="4" />
    </filter>
  </defs>

  <rect width="1600" height="1200" fill="none" />
  <rect width="1600" height="1200" fill="url(#grid)" />

  <g fill="none" stroke="#223845" stroke-linecap="round">
    <path d="M-80 180 C 120 80, 310 76, 470 150 S 760 282, 940 172 S 1280 40, 1700 170" stroke-opacity="0.08" stroke-width="3" />
    <path d="M-80 250 C 120 150, 306 146, 472 216 S 742 336, 930 228 S 1260 96, 1700 226" stroke-opacity="0.075" stroke-width="3" />
    <path d="M-80 330 C 124 226, 320 226, 480 298 S 740 420, 924 314 S 1268 178, 1700 310" stroke-opacity="0.07" stroke-width="3" />
    <path d="M-80 420 C 130 318, 318 318, 484 390 S 748 516, 944 410 S 1284 268, 1700 412" stroke-opacity="0.065" stroke-width="3" />
    <path d="M-80 516 C 120 414, 322 418, 492 490 S 748 612, 940 520 S 1276 378, 1700 520" stroke-opacity="0.06" stroke-width="3" />
    <path d="M-80 616 C 118 516, 320 524, 494 594 S 750 712, 940 624 S 1280 482, 1700 628" stroke-opacity="0.055" stroke-width="3" />
    <path d="M-80 720 C 118 620, 330 630, 506 698 S 754 812, 956 728 S 1290 592, 1700 732" stroke-opacity="0.05" stroke-width="3" />
    <path d="M-80 828 C 116 730, 334 744, 514 806 S 770 920, 962 842 S 1298 708, 1700 840" stroke-opacity="0.045" stroke-width="3" />
  </g>

  <g opacity="0.22" filter="url(#blur)">
    <ellipse cx="290" cy="260" rx="180" ry="120" fill="#d6e0d8" />
    <ellipse cx="1280" cy="320" rx="220" ry="150" fill="#f3eee0" />
  </g>

  <g fill="none" stroke="#20323c" stroke-opacity="0.07" stroke-width="2">
    <path d="M180 930 H1420" />
    <path d="M260 1020 H1340" />
    <path d="M340 1110 H1260" />
    <path d="M500 0 V1200" />
    <path d="M940 0 V1200" />
  </g>
</svg>
